<svg aria-hidden="true" style="position: absolute; width: 0; height: 0; overflow: hidden;" version="1.1" xmlns="http://www.w3.org/2000/svg" xmlns:xlink="http://www.w3.org/1999/xlink">
<defs>
<symbol id="burger" viewBox="0 0 32 32">
<path  d="M4 22.667c0 0.736 0.597 1.333 1.333 1.333h21.333c0.736 0 1.333-0.597 1.333-1.333s-0.597-1.333-1.333-1.333h-21.333c-0.736 0-1.333 0.597-1.333 1.333zM4 16c0 0.736 0.597 1.333 1.333 1.333h21.333c0.736 0 1.333-0.597 1.333-1.333s-0.597-1.333-1.333-1.333h-21.333c-0.736 0-1.333 0.597-1.333 1.333zM5.333 8c-0.736 0-1.333 0.597-1.333 1.333s0.597 1.333 1.333 1.333h21.333c0.736 0 1.333-0.597 1.333-1.333s-0.597-1.333-1.333-1.333h-21.333z"></path>
</symbol>
</defs>
</svg>
